<?xml version="1.0" encoding="utf-8"?>
<!-- Generator: Adobe Illustrator 16.0.0, SVG Export Plug-In . SVG Version: 6.00 Build 0)  -->
<svg version="1.2" baseProfile="tiny" id="Capa_1" xmlns="http://www.w3.org/2000/svg" xmlns:xlink="http://www.w3.org/1999/xlink"
	 x="0px" y="0px" width="35.318px" height="35.318px" viewBox="0 0 35.318 35.318" xml:space="preserve">
<g>
	<g>
		<path fill="#010002" d="M17.961,0.977c-9.587,0-17.359,7.688-17.359,17.17S8.375,35.318,17.96,35.318
			c9.584,0,17.357-7.689,17.357-17.171C35.32,8.663,27.546,0.977,17.961,0.977z M13.621,26.464H9.283V11.44h4.339L13.621,26.464
			L13.621,26.464z M11.585,10.519c-1.122,0-2.031-0.902-2.031-2.013c0-1.112,0.912-2.015,2.031-2.015
			c1.124,0.003,2.036,0.904,2.036,2.015C13.621,9.617,12.711,10.519,11.585,10.519z M28.81,26.464h-4.338v-9.29
			c0-1.089-0.315-1.849-1.666-1.849c-2.244,0-2.674,1.849-2.674,1.849v9.29h-4.34V11.44h4.34v1.436
			c0.621-0.47,2.17-1.434,4.34-1.434c1.405,0,4.338,0.833,4.338,5.862V26.464z"/>
	</g>
</g>
</svg>
