<?xml version="1.0" encoding="utf-8"?>
<!-- Generator: Adobe Illustrator 16.0.0, SVG Export Plug-In . SVG Version: 6.00 Build 0)  -->
<!DOCTYPE svg PUBLIC "-//W3C//DTD SVG 1.1//EN" "http://www.w3.org/Graphics/SVG/1.1/DTD/svg11.dtd">
<svg version="1.1" id="Capa_1" xmlns="http://www.w3.org/2000/svg" xmlns:xlink="http://www.w3.org/1999/xlink" x="0px" y="0px"
	 width="35.318px" height="35.318px" viewBox="0 0 35.318 35.318" enable-background="new 0 0 35.318 35.318" xml:space="preserve">
<g>
	<g>
		<path fill="#010002" d="M18.072,2.003C9.1,2.003,1.825,9.278,1.825,18.25c0,8.973,7.275,16.247,16.247,16.247
			s16.246-7.274,16.246-16.247C34.318,9.276,27.043,2.003,18.072,2.003z M14.01,26.12H9.949V11.904h4.062V26.12z M12.105,11.032
			c-1.052,0-1.902-0.853-1.902-1.904c0-1.052,0.853-1.906,1.902-1.906c1.052,0.002,1.905,0.855,1.905,1.906
			C14.01,10.18,13.157,11.032,12.105,11.032z M28.226,26.12h-4.062v-8.79c0-1.03-0.294-1.75-1.559-1.75
			c-2.099,0-2.503,1.75-2.503,1.75v8.79h-4.062V11.904h4.062v1.359c0.582-0.445,2.031-1.357,4.062-1.357
			c1.317,0,4.062,0.788,4.062,5.548V26.12z"/>
	</g>
</g>
</svg>
