<?xml version="1.0" encoding="utf-8"?>
<!-- Generator: Adobe Illustrator 16.0.0, SVG Export Plug-In . SVG Version: 6.00 Build 0)  -->
<!DOCTYPE svg PUBLIC "-//W3C//DTD SVG 1.1//EN" "http://www.w3.org/Graphics/SVG/1.1/DTD/svg11.dtd">
<svg version="1.1" id="Capa_1" xmlns="http://www.w3.org/2000/svg" xmlns:xlink="http://www.w3.org/1999/xlink" x="0px" y="0px"
	 width="35.318px" height="35.318px" viewBox="0 0 35.318 35.318" enable-background="new 0 0 35.318 35.318" xml:space="preserve">
<g>
	<path fill="#010002" d="M18.77,1.635c-8.856,0-16.036,7.18-16.036,16.036s7.18,16.036,16.036,16.036
		c8.855,0,16.035-7.18,16.035-16.036C34.805,8.813,27.625,1.635,18.77,1.635z M26.748,14.07l0.013,0.512
		c0,5.22-3.971,11.233-11.233,11.233c-2.229,0-4.304-0.654-6.052-1.774c0.309,0.036,0.624,0.056,0.942,0.056
		c1.851,0,3.552-0.631,4.903-1.689c-1.728-0.032-3.185-1.175-3.688-2.742c0.243,0.047,0.487,0.068,0.744,0.068
		c0.361,0,0.709-0.046,1.041-0.137c-1.806-0.364-3.167-1.958-3.167-3.871v-0.05c0.533,0.296,1.141,0.473,1.788,0.495
		c-1.058-0.708-1.756-1.917-1.756-3.286c0-0.724,0.194-1.401,0.533-1.984c1.946,2.389,4.857,3.96,8.138,4.125
		c-0.068-0.288-0.102-0.591-0.102-0.899c0-2.179,1.768-3.947,3.949-3.947c1.134,0,2.16,0.479,2.882,1.247
		c0.898-0.179,1.743-0.507,2.508-0.958c-0.295,0.922-0.92,1.695-1.735,2.185c0.795-0.094,1.559-0.309,2.267-0.621
		C28.191,12.821,27.52,13.518,26.748,14.07z"/>
</g>
<g>
	<path fill="#010002" d="M18.77,1.635c-8.856,0-16.036,7.18-16.036,16.036s7.18,16.036,16.036,16.036
		c8.855,0,16.035-7.18,16.035-16.036C34.805,8.813,27.625,1.635,18.77,1.635z M26.748,14.07l0.013,0.512
		c0,5.22-3.971,11.233-11.233,11.233c-2.229,0-4.304-0.654-6.052-1.774c0.309,0.036,0.624,0.056,0.942,0.056
		c1.851,0,3.552-0.631,4.903-1.689c-1.728-0.032-3.185-1.175-3.688-2.742c0.243,0.047,0.487,0.068,0.744,0.068
		c0.361,0,0.709-0.046,1.041-0.137c-1.806-0.364-3.167-1.958-3.167-3.871v-0.05c0.533,0.296,1.141,0.473,1.788,0.495
		c-1.058-0.708-1.756-1.917-1.756-3.286c0-0.724,0.194-1.401,0.533-1.984c1.946,2.389,4.857,3.96,8.138,4.125
		c-0.068-0.288-0.102-0.591-0.102-0.899c0-2.179,1.768-3.947,3.949-3.947c1.134,0,2.16,0.479,2.882,1.247
		c0.898-0.179,1.743-0.507,2.508-0.958c-0.295,0.922-0.92,1.695-1.735,2.185c0.795-0.094,1.559-0.309,2.267-0.621
		C28.191,12.821,27.52,13.518,26.748,14.07z"/>
</g>
</svg>
