<?xml version="1.0" encoding="utf-8"?>
<!-- Generator: Adobe Illustrator 16.0.0, SVG Export Plug-In . SVG Version: 6.00 Build 0)  -->
<svg version="1.2" baseProfile="tiny" id="Capa_1" xmlns="http://www.w3.org/2000/svg" xmlns:xlink="http://www.w3.org/1999/xlink"
	 x="0px" y="0px" width="35.318px" height="35.318px" viewBox="0 0 35.318 35.318" xml:space="preserve">
<g>
	<path fill="#010002" d="M17.45,0.135c-9.683,0-17.533,7.85-17.533,17.532S7.767,35.199,17.45,35.199
		c9.681,0,17.53-7.85,17.53-17.532C34.98,7.982,27.13,0.135,17.45,0.135z M26.171,13.73l0.016,0.56
		c0,5.707-4.343,12.281-12.282,12.281c-2.438,0-4.705-0.715-6.617-1.94c0.339,0.04,0.684,0.062,1.03,0.062
		c2.023,0,3.883-0.69,5.361-1.846c-1.89-0.036-3.482-1.285-4.032-2.998c0.265,0.051,0.532,0.073,0.812,0.073
		c0.395,0,0.775-0.049,1.139-0.149c-1.975-0.397-3.463-2.14-3.463-4.231v-0.055c0.583,0.324,1.248,0.517,1.955,0.542
		c-1.157-0.774-1.92-2.096-1.92-3.593c0-0.791,0.213-1.531,0.583-2.169c2.127,2.611,5.311,4.33,8.896,4.51
		c-0.073-0.315-0.111-0.646-0.111-0.983c0-2.382,1.933-4.315,4.317-4.315c1.24,0,2.362,0.525,3.15,1.364
		c0.982-0.195,1.907-0.555,2.742-1.047c-0.321,1.008-1.006,1.854-1.896,2.389c0.868-0.103,1.706-0.338,2.479-0.678
		C27.749,12.365,27.016,13.127,26.171,13.73z"/>
</g>
<g>
	<path fill="#010002" d="M17.45,0.135c-9.683,0-17.533,7.85-17.533,17.532S7.767,35.199,17.45,35.199
		c9.681,0,17.53-7.85,17.53-17.532C34.98,7.982,27.13,0.135,17.45,0.135z M26.171,13.73l0.016,0.56
		c0,5.707-4.343,12.281-12.282,12.281c-2.438,0-4.705-0.715-6.617-1.94c0.339,0.04,0.684,0.062,1.03,0.062
		c2.023,0,3.883-0.69,5.361-1.846c-1.89-0.036-3.482-1.285-4.032-2.998c0.265,0.051,0.532,0.073,0.812,0.073
		c0.395,0,0.775-0.049,1.139-0.149c-1.975-0.397-3.463-2.14-3.463-4.231v-0.055c0.583,0.324,1.248,0.517,1.955,0.542
		c-1.157-0.774-1.92-2.096-1.92-3.593c0-0.791,0.213-1.531,0.583-2.169c2.127,2.611,5.311,4.33,8.896,4.51
		c-0.073-0.315-0.111-0.646-0.111-0.983c0-2.382,1.933-4.315,4.317-4.315c1.24,0,2.362,0.525,3.15,1.364
		c0.982-0.195,1.907-0.555,2.742-1.047c-0.321,1.008-1.006,1.854-1.896,2.389c0.868-0.103,1.706-0.338,2.479-0.678
		C27.749,12.365,27.016,13.127,26.171,13.73z"/>
</g>
</svg>
